<svg width="32" height="32" viewBox="0 0 24 24" fill="none" xmlns="http://www.w3.org/2000/svg">
  <path d="M15 2H9a1 1 0 0 0-1 1v2a1 1 0 0 0 1 1h6a1 1 0 0 0 1-1V3a1 1 0 0 0-1-1Z" stroke="#14532d" stroke-width="2" stroke-linecap="round" stroke-linejoin="round"/>
  <path d="M19 6H5a2 2 0 0 0-2 2v12a2 2 0 0 0 2 2h14a2 2 0 0 0 2-2V8a2 2 0 0 0-2-2Z" stroke="#14532d" stroke-width="2" stroke-linecap="round" stroke-linejoin="round"/>
  <path d="M12 14a2 2 0 1 0 0-4 2 2 0 0 0 0 4Z" stroke="#14532d" stroke-width="2" stroke-linecap="round" stroke-linejoin="round"/>
</svg>